<svg width="78" height="49" viewBox="0 0 78 49" fill="none" xmlns="http://www.w3.org/2000/svg">
<path fill-rule="evenodd" clip-rule="evenodd" d="M19.3605 27.2543C19.8017 29.9334 20.2428 32.6125 20.684 35.2916L21.0403 37.4551C21.0853 37.7281 21.0428 38.2666 21.2141 38.511C21.2746 38.5972 21.4337 38.6382 21.5507 38.689C21.9532 38.864 22.3558 39.039 22.7584 39.214C26.1638 40.6943 29.5691 42.1746 32.9743 43.6549C36.2424 45.0756 39.5105 46.4963 42.7786 47.9169C43.1168 48.064 43.6638 48.4475 44.0289 48.3465C44.3759 48.2504 44.7306 48.0135 45.0457 47.864C45.6505 47.577 46.2553 47.2901 46.8601 47.0031C50.5198 45.2665 54.1794 43.5299 57.8391 41.7934C59.3491 41.0769 60.859 40.3605 62.3689 39.644C62.782 39.4479 63.1952 39.2519 63.6083 39.0558C63.8244 38.9533 63.8525 38.9569 63.9375 38.7829C64.2555 38.1323 64.4027 37.3871 64.6277 36.712C64.8757 35.9681 65.1236 35.2242 65.3715 34.4802C65.4821 34.1483 65.4302 34.1055 65.2499 33.785C64.8931 33.1508 64.5362 32.5166 64.1794 31.8824C63.3875 30.4748 62.5956 29.0672 61.8035 27.6596C61.4832 27.0904 60.7118 26.6899 60.1564 26.2712L51.5331 19.7708C51.3141 19.6056 51.0951 19.4405 50.8761 19.2754C50.84 20.2678 50.5978 21.3346 50.953 22.2933C51.536 23.8666 52.1189 25.4398 52.7018 27.0131C52.9836 27.7736 53.2653 28.534 53.5471 29.2944C53.5994 29.4357 53.9181 29.996 53.8329 30.1202C53.7857 30.1891 53.3832 30.2588 53.296 30.2856C52.9214 30.401 52.5468 30.5164 52.1722 30.6318C51.1286 30.9533 50.0849 31.2748 49.0413 31.5962C48.1026 31.8854 47.1639 32.1745 46.2252 32.4636C45.9069 32.5617 45.5331 32.7433 45.1969 32.7281C44.8962 32.7146 44.5543 32.5941 44.2633 32.5334C43.7517 32.4267 43.24 32.32 42.7284 32.2133C41.7234 32.0037 40.7184 31.7941 39.7134 31.5845C38.5827 31.3487 37.6279 30.6561 36.6609 30.1435C34.9989 29.2623 33.3368 28.3812 31.6749 27.5001C31.2944 27.2984 31.293 27.1833 31.1414 26.815C30.8006 25.9873 30.4598 25.1596 30.1191 24.3319C29.9372 23.89 29.7134 23.4462 29.576 22.9937C29.3493 22.247 29.2149 21.474 29.0354 20.719C28.9813 20.4913 28.9271 20.2634 28.873 20.0356C28.1769 20.2643 27.4809 20.4931 26.7848 20.7218C26.6839 20.755 26.1923 20.8538 26.1486 20.935C26.1209 20.9863 26.2671 21.2193 26.288 21.2694C26.8652 22.6534 27.4423 24.0374 28.0195 25.4213C28.2011 25.8567 28.3826 26.292 28.5641 26.7274C28.1304 26.1754 27.6965 25.6234 27.2626 25.0714C26.9218 25.9997 26.5809 26.9281 26.24 27.8565C25.4343 27.1038 24.6286 26.351 23.8229 25.5983C23.544 26.351 23.2651 27.1038 22.9862 27.8565C22.1185 26.9281 21.2509 25.9997 20.3831 25.0714C20.28 25.5558 20.1768 26.0403 20.0736 26.5248C20.0425 26.671 20.0487 27.0905 19.9285 27.2063C19.8295 27.3016 19.5445 27.2543 19.3605 27.2543Z" fill="#FF5678"/>
<path fill-rule="evenodd" clip-rule="evenodd" d="M74.2975 33.0454C74.2487 34.3065 74.2825 35.9436 73.4301 37.0525C73.2925 37.2314 72.8265 37.7889 72.7744 37.2984C72.7234 36.817 72.8697 36.3402 72.7248 35.8532C72.6472 35.5926 72.3865 35.0234 71.9407 35.2588C71.7136 35.3788 71.6537 35.675 71.5648 35.8619C71.4334 36.1386 71.2861 36.4108 71.1477 36.6854C70.6643 37.6437 70.1633 38.7873 69.0888 39.4214C69.2294 38.5951 69.6127 37.7128 69.355 36.8775C69.2672 36.5928 69.0012 36.0729 68.5431 36.2397C68.0967 36.4023 67.8074 37.1274 67.5967 37.4504C66.958 38.4294 66.3047 39.39 65.5856 40.3325C65.2239 40.8066 64.8332 41.2399 64.3599 41.6454C64.064 41.899 63.695 42.3277 63.2286 42.3655C63.2286 41.6427 63.5224 40.9443 63.7906 40.2636C64.0791 39.5316 64.3421 38.7934 64.6252 38.0601C64.8709 37.424 65.0725 36.7928 65.236 36.1405C65.3038 35.8707 65.3574 35.5913 65.6414 35.4171C65.8967 35.2605 66.2999 35.186 66.5846 35.0709C67.3321 34.7685 68.1008 34.4423 68.7952 34.0665C69.0803 33.9122 69.3257 33.7128 69.6242 33.5744C69.9644 33.4167 70.282 33.284 70.5967 33.0918C71.9545 32.2626 73.1786 31.2425 74.0034 30.0282C74.1373 30.516 74.3147 30.9927 74.3343 31.4956C74.3543 32.0112 74.3175 32.5301 74.2975 33.0454ZM63.1221 38.8421C62.9049 38.5451 62.574 38.6668 62.2825 38.8099C61.8301 39.0321 61.3765 39.2526 60.9218 39.4719C59.9965 39.9183 59.0884 40.388 58.1844 40.8619C56.3441 41.8264 54.4397 42.6158 52.4996 43.4322C50.6244 44.2211 48.8234 45.16 47.0665 46.109C46.6443 46.3371 46.225 46.5705 45.8196 46.8179C45.4597 47.0375 45.1719 47.3458 44.793 47.5413C44.3985 47.7448 44.1273 47.5796 43.7499 47.4296C43.278 47.2418 42.7863 47.0845 42.3039 46.9152C40.3572 46.2319 38.405 45.5226 36.5114 44.747C34.6292 43.9762 32.8458 43.088 31.0424 42.2059C30.1835 41.7858 29.3392 41.339 28.492 40.9035C27.5905 40.44 26.657 40.0929 25.7112 39.6988C25.2928 39.5244 24.9221 39.2877 24.4924 39.1292C24.0405 38.9626 23.5632 38.843 23.1587 38.6027C22.9773 38.4949 22.8243 38.3661 22.6169 38.2899C22.4467 38.2273 22.2535 38.2168 22.0854 38.1503C21.7435 38.0151 21.6456 37.7408 21.5794 37.4554C21.1536 35.6235 20.9272 33.7408 20.6804 31.8885C20.5417 30.8469 20.3869 29.8093 20.1952 28.7732C20.1087 28.3061 20.2826 27.9442 20.3738 27.4897C20.4804 26.959 20.5225 26.4171 20.5939 25.8827C20.9308 26.3881 21.2222 26.9185 21.6508 27.3797C21.9668 27.7195 22.5066 28.2015 23.0885 28.1902C23.9928 28.1725 23.9515 26.9165 23.9879 26.418C24.3998 26.7157 24.5248 27.2007 24.8667 27.5465C25.1789 27.8622 25.6038 28.2539 26.0832 28.3953C27.0926 28.693 26.9955 27.1759 26.94 26.7456C26.9121 26.5298 26.7616 26.1884 27.1186 26.2867C27.4475 26.3774 27.7675 26.753 28.0438 26.9253C28.5216 27.2233 29.0457 27.4708 29.5358 27.7552C30.1439 28.1081 30.8 28.3631 31.42 28.6918C31.8078 28.8973 32.2308 28.9435 32.6535 29.0946C33.2728 29.3162 33.8199 29.6463 34.4094 29.9119C35.5768 30.4375 36.8718 30.9089 38.1487 31.2258C38.5619 31.3283 39.1124 31.6173 39.4258 31.3203C39.6188 31.1375 39.7456 30.8583 39.9094 30.6535C40.1166 30.3941 40.3367 30.1415 40.5652 29.8941C41.3775 29.0148 42.279 28.1846 43.2802 27.443C44.445 26.5803 45.7186 25.8039 47.0809 25.1573C47.6662 24.8795 50.1103 23.6343 50.6476 24.5107C50.2061 24.4884 49.8234 24.6191 49.4459 24.7829C49.3538 24.8228 48.8786 25.0976 48.9898 24.8554C48.8518 24.8763 48.7307 25.0221 48.6262 25.0869C48.4456 25.1989 48.1716 25.3282 47.9624 25.4209C47.7557 25.5126 47.5002 25.535 47.3118 25.6461C47.243 25.6867 47.2012 25.7524 47.1356 25.7963L46.9474 25.7975C46.9193 25.8819 46.8911 25.9662 46.8629 26.0506C46.7566 25.7746 46.6049 26.1336 46.4272 26.2502C46.3204 26.3202 46.1513 26.3924 46.0255 26.4377C45.9315 26.4715 45.917 26.3929 45.8257 26.4526C45.7446 26.5057 45.6929 26.6226 45.6057 26.6891C45.4987 26.7706 45.3618 26.8339 45.2425 26.9034C45.014 27.0367 44.7723 27.1413 44.5408 27.2676C44.2294 27.4376 44.066 27.7299 43.7637 27.9076C43.6204 27.9917 43.398 28.0016 43.3204 28.0555C43.126 28.1908 43.1901 28.3959 42.8275 28.4049C42.8605 28.4477 42.8803 28.494 42.8871 28.5441C42.8008 28.532 42.724 28.5031 42.6568 28.4571C42.6718 28.7499 42.3162 28.8544 42.1031 29.0347C41.9801 29.1386 41.827 29.2847 41.7404 29.4097C41.726 29.4306 41.6985 29.5975 41.6925 29.5998C41.6596 29.6126 41.4593 29.4701 41.4782 29.482C41.4224 29.7525 41.099 30.0083 40.9574 30.2587C40.8829 30.3907 40.8071 30.6028 40.6601 30.6956C40.6201 30.7208 40.4972 30.6945 40.3955 30.7822C40.321 30.8465 40.235 30.9653 40.2047 31.0506C40.1845 31.1076 40.2088 31.255 40.1798 31.2891C40.1266 31.3516 40.0438 31.2888 39.9605 31.335C39.8066 31.4204 39.8027 31.5538 39.5774 31.5713C39.7327 31.8768 40.6702 31.971 41.0109 32.0578C41.9745 32.3034 42.9854 32.5486 43.8861 32.9247C44.1191 33.0219 44.3395 33.1021 44.3808 33.3262C44.4384 33.6379 44.2421 34.0525 44.2046 34.3675C44.1032 35.218 44.0825 36.0936 44.1037 36.9477C44.1238 37.7567 44.1561 38.5733 44.2027 39.3814C44.2458 40.1306 44.4324 40.8649 44.5331 41.6089C44.5607 41.8131 44.5423 42.7338 44.9759 42.6874C45.3379 42.6488 45.1093 42.0199 45.1025 41.8396C45.0874 41.4406 45.1911 41.0332 45.1867 40.6306C45.1847 40.4371 45.2892 40.2704 45.2992 40.0852C45.3092 39.9022 45.1969 39.7576 45.2305 39.5679C45.2629 39.3859 45.9274 38.339 45.2892 38.4616C45.3266 38.312 45.3593 38.1611 45.4087 38.0136C45.4769 38.0633 45.5319 38.1213 45.5734 38.1876C45.6302 37.866 45.6112 37.545 45.6465 37.2233C45.6623 37.0775 45.7352 36.9179 45.7103 36.7709C45.7151 36.71 45.7055 36.6503 45.6817 36.5917C45.6425 36.5581 45.5938 36.5404 45.5361 36.5386C45.5057 36.4582 45.4979 36.4361 45.5518 36.3571C45.575 36.3036 45.6209 36.2702 45.6896 36.2569C45.8205 36.2443 45.8355 36.1834 45.7344 36.0742C45.7871 35.8586 45.7939 35.7225 45.7559 35.5074C45.7239 35.3267 45.8415 34.9767 45.7217 34.8158C45.5818 34.6277 45.5122 34.8102 45.4862 34.5494C45.4806 34.4942 45.4761 34.3792 45.5036 34.3242C45.5336 34.2643 45.6239 34.2888 45.6354 34.2675C45.7138 34.1226 45.719 33.8373 45.4417 33.8621C45.4525 33.7586 45.4634 33.6551 45.4742 33.5516C45.6745 33.7384 45.6045 33.5803 45.7181 33.4765C45.8712 33.3366 46.0208 33.3125 46.2396 33.2572C46.8226 33.11 47.3843 32.8885 47.954 32.7087C49.1603 32.328 50.389 31.9882 51.56 31.5384C54.023 30.5921 56.4371 29.5652 58.9151 28.6439C58.7381 28.3779 58.8481 28.3649 58.9775 28.1152C59.1503 28.2123 59.1139 28.1445 59.2368 28.1386C59.2257 28.0553 59.2577 28.0301 59.3328 28.0632C59.3926 28.078 59.4538 28.0833 59.5167 28.0789C59.6701 28.1002 59.7954 28.1686 59.9348 28.1945C59.9806 28.2218 60.0309 28.2423 60.0857 28.2561C60.135 28.247 60.177 28.2273 60.2118 28.1969C60.4375 28.2307 60.5135 28.3684 60.5235 28.5677C60.5252 28.6024 60.3941 28.638 60.4316 28.6845C60.4972 28.766 60.6736 28.7466 60.7746 28.757C60.7525 28.8416 60.7303 28.9261 60.7083 29.0106C61.1513 28.8451 61.0357 29.3632 61.1701 29.5334C61.2075 29.5809 61.2909 29.543 61.3343 29.598C61.3909 29.6698 61.3738 29.7715 61.4221 29.843C61.5311 30.0048 61.6403 29.9851 61.749 30.1704C62.3169 31.1375 63.0724 32.0386 63.6176 33.0266C63.8772 33.4968 64.1112 33.9751 64.3822 34.4412C64.6316 34.8702 64.7741 35.2348 64.5963 35.7033C64.1841 36.79 63.7433 37.8965 63.2031 38.9462C63.1761 38.9115 63.1491 38.8768 63.1221 38.8421ZM34.3683 46.9536C34.3296 47.0069 34.2909 47.0602 34.2522 47.1136C34.1663 46.7135 34.3952 46.899 34.3683 46.9536ZM32.55 46.2045C32.4261 46.1745 32.4796 46.0106 32.4836 45.9405C32.562 46.0196 32.6389 46.1002 32.7042 46.1871C32.6527 46.1929 32.6013 46.1987 32.55 46.2045ZM27.5667 44.6665C27.6969 44.6074 27.7905 44.565 27.9381 44.498C27.7881 44.7346 27.7881 44.7346 27.5667 44.6665ZM19.727 23.8207C19.5281 24.2159 20.1345 26.6559 19.57 26.7356C19.489 26.5214 19.4789 25.9317 19.1437 25.8614C18.7279 25.774 18.7689 26.3811 18.7121 26.5688C17.8584 26.0879 17.4792 25.1591 17.0713 24.4231C16.5514 23.485 16.1424 22.5092 15.7517 21.5318C15.4177 20.696 15.1415 19.8455 14.804 19.0111C14.5919 18.4871 14.3633 17.9617 14.2207 17.4216C14.1897 17.3042 14.0678 17.0067 14.1714 16.8951C14.3219 16.7329 14.8637 16.9187 15.0383 16.9613C16.1709 17.2372 17.3458 17.356 18.5095 17.5163C19.8024 17.6944 21.0924 17.8784 22.3931 18.0164C22.7181 18.0509 23.0433 18.0836 23.3687 18.1154C23.5797 18.136 23.8991 18.1154 24.0996 18.192C24.5053 18.347 24.5916 18.9401 24.7423 19.2478C25.3045 20.3959 25.9661 21.5077 26.5581 22.6453C27.0913 23.6702 27.4955 24.7605 28.262 25.6937C27.6904 25.4885 26.9659 24.4036 26.3271 25.0289C26.0525 25.2978 26.1218 25.652 26.1437 25.9738C26.1755 26.439 26.1855 26.9077 26.1855 27.3736C25.5603 27.2421 25.1403 26.6675 24.8122 26.2605C24.3639 25.7047 24.0815 25.1808 23.883 24.5436C23.7971 24.2676 23.5691 24.2608 23.3665 24.0956C23.2364 23.9895 23.1709 23.8465 22.9842 24.0009C22.7496 24.1949 22.9057 24.7323 22.9462 24.9614C23.0424 25.5066 23.3581 26.3457 23.0513 26.858C22.6372 27.5494 21.5277 25.8097 21.3977 25.5585C21.3316 25.4306 20.1511 22.9778 19.727 23.8207ZM18.9518 11.9721C19.0217 11.9807 19.0916 11.9894 19.1615 11.998C19.1051 12.0383 18.9879 12.1795 18.8921 12.1422C18.912 12.0855 18.9319 12.0288 18.9518 11.9721ZM22.6547 11.3287C22.6328 11.3482 22.6108 11.3676 22.5889 11.3871C22.4886 11.2856 22.5242 11.1377 22.5242 11.0204C22.6566 11.0852 22.689 11.2148 22.6547 11.3287ZM22.9539 12.4545V12.7861C22.6763 12.6887 22.6709 12.6384 22.9539 12.4545ZM23.291 12.8762C23.0966 12.8329 23.0733 12.7981 23.1006 12.5561C23.1812 12.6917 23.2343 12.781 23.291 12.8762ZM24.4105 15.3323C24.329 15.5021 23.8526 15.0974 23.87 14.9763C23.8867 14.8608 23.9598 14.8263 24.0608 14.9006C24.0942 14.9252 24.0446 15.0141 24.0659 15.045C24.1428 15.1567 24.2978 15.2481 24.4105 15.3323ZM24.4158 16.3554C24.2965 16.5967 24.0837 16.2167 24.3956 16.2063C24.416 16.2548 24.4228 16.3045 24.4158 16.3554ZM24.1843 15.9749C24.1381 15.925 24.0932 15.8744 24.0496 15.8229C24.2102 15.8492 24.3377 16.0387 24.5072 15.9123C24.4871 16.1051 24.3179 16.1105 24.1843 15.9749ZM13.7957 12.8402C13.5374 12.6119 15.222 12.4517 15.4253 12.4125C16.9001 12.1277 18.2925 11.7157 19.6715 11.2101C20.3293 10.9689 20.9838 10.7248 21.6262 10.4574C21.9036 10.342 22.2838 10.2442 22.5155 10.0709C22.6809 9.94722 22.6743 9.85365 22.8892 9.77996C23.0717 9.71756 23.0808 9.7765 23.1644 9.66359C23.2146 9.59584 23.2714 9.34759 23.242 9.27413C23.162 9.07368 23.0437 9.23619 22.8775 9.09807C22.7579 8.99848 22.7869 8.7153 22.8195 8.59803C22.8619 8.65388 22.8863 8.71455 22.8928 8.77989C23.073 8.70793 23.0003 8.46081 23.1975 8.42031C23.4053 8.37771 23.3838 8.50876 23.438 8.64274C23.595 8.45606 23.4692 8.29686 23.3842 8.11455C23.8162 8.04907 24.2804 7.98561 24.7086 8.10198C25.0183 8.18606 25.2833 8.39284 25.6103 8.43281C25.9304 8.47187 25.992 8.34895 26.228 8.22422C26.4196 8.12298 26.5842 8.24221 26.6828 8.16574C26.622 8.42392 26.0993 8.38862 26.1636 8.71124C26.1926 8.85644 26.4124 8.98689 26.5124 9.09987C26.638 9.24169 26.7381 9.39848 26.8237 9.55828C27.1564 10.1799 27.2986 10.9012 27.4383 11.566C27.7828 13.2068 27.8264 14.8799 28.1505 16.526C28.3049 17.31 28.4597 18.0945 28.5399 18.8862C28.56 19.0842 28.7093 19.5332 28.5871 19.7236C28.4839 19.8844 28.254 19.8849 28.0523 19.9238C27.6576 19.9997 27.2869 20.1029 26.9083 20.2173C26.5688 20.3197 26.4702 20.3826 26.2523 20.124C26.0415 19.8738 25.9373 19.5756 25.7865 19.3013C25.5945 18.9518 25.3624 18.6146 25.1397 18.2774C25.5773 18.2774 25.8291 18.0862 25.8175 17.7261C25.8048 17.3273 25.3998 17.2327 25.2328 16.905C25.0704 17.0758 25.0567 17.0806 24.941 16.9184C24.8086 16.733 24.7193 16.3938 24.6383 16.1835C24.6962 16.2335 24.7541 16.2836 24.8121 16.3336C24.9581 16.1708 24.7293 15.9143 24.6528 15.7611C24.5347 15.5244 24.5139 15.2685 24.4019 15.0326C24.3408 14.9038 24.1993 14.8024 24.1646 14.668C24.1415 14.5781 24.2343 14.4925 24.2122 14.4012C24.1739 14.2422 23.9518 14.0716 23.8828 13.9099C23.7765 13.6612 23.6611 13.4423 23.5293 13.2C23.3509 12.872 23.3924 12.5279 23.3597 12.1788C23.3259 11.8169 23.1827 11.4707 23.1322 11.1103C23.0972 10.8614 23.2066 10.548 22.974 10.3486C22.9468 10.68 23.0641 10.6749 22.6795 10.7345C22.2416 10.8023 21.9241 11.0664 21.5101 11.1453C21.4247 11.1615 21.3625 10.8597 21.3958 11.2714C21.1972 11.1527 20.7734 11.3001 20.9316 11.3705C20.8117 11.4743 20.5757 11.4025 20.5363 11.5581C20.129 11.2375 19.4759 12.3287 18.9909 11.7595C18.9108 12.1453 18.5658 12.3733 18.1027 12.4244C17.8698 12.45 17.7263 12.5128 17.5196 12.5693C17.4777 12.5807 17.4622 12.6296 17.4126 12.6427C17.3367 12.6628 17.2254 12.6023 17.1707 12.6141C17.0594 12.638 16.9357 12.7565 16.7803 12.7801C16.6022 12.8071 16.4079 12.7947 16.2296 12.778C16.0067 12.7571 15.9086 12.7357 15.6903 12.7952C15.494 12.8487 15.2837 12.9985 15.1014 12.8354C14.8152 13.2363 14.1327 13.1383 13.7957 12.8402ZM27.0289 8.00149C26.8123 7.98049 26.9627 7.82964 27.0631 7.78433C27.3356 7.66134 27.2628 8.02423 27.0289 8.00149ZM15.0344 9.44041C16.3058 7.95528 18.4805 6.93488 20.3939 6.07632C21.4391 5.60737 22.5058 5.1528 23.6032 4.76898C24.1488 4.57824 24.7008 4.39488 25.2579 4.22732C25.5554 4.13782 25.8565 4.05645 26.1578 3.97546C26.2411 3.9531 26.3927 3.88445 26.4799 3.89115C26.4648 3.88995 26.6966 3.94098 26.651 3.95702C26.8003 3.9044 26.8714 3.76718 27.0469 3.7123C27.2442 3.65058 27.4954 3.62506 27.7068 3.61949C27.8937 3.61453 28.0556 3.67708 28.2337 3.68197C28.3507 3.68513 28.4502 3.64012 28.5648 3.63349C28.6235 3.63018 28.6183 3.70124 28.6536 3.70538C28.669 3.70719 28.8251 3.65969 28.8266 3.66052C28.8835 3.6901 28.9339 3.80557 28.9853 3.85066C29.1328 3.97997 29.3492 4.07008 29.5458 4.13812C29.7851 4.22092 30.3688 4.30417 30.0983 4.61053C30.2905 4.58818 30.3799 4.72879 30.1393 4.76439C30.009 4.78374 29.9533 4.68709 29.8565 4.62115C29.6329 4.4691 29.0902 4.25261 28.7681 4.2624C28.587 4.26789 28.447 4.37922 28.2799 4.41964C28.1154 4.45939 28.034 4.39774 27.8897 4.40752C27.7211 4.41889 27.6125 4.53443 27.4517 4.55498C27.3012 4.57425 27.2174 4.49115 27.0829 4.49695C26.923 4.5038 26.7681 4.61625 26.6154 4.65404C26.3726 4.71411 26.1943 4.75506 25.9572 4.85464C25.4978 5.04772 24.9847 5.12103 24.5112 5.28723C24.1327 5.42009 23.7034 5.49002 23.3531 5.63695C22.9636 5.80022 22.5723 5.96288 22.1909 6.1403C21.9153 6.26849 21.3551 6.3126 21.0513 6.28001C21.0469 6.733 20.7716 6.41542 20.4941 6.61384C20.5597 6.66074 20.6342 6.69521 20.7175 6.71727C20.4167 6.81452 20.1387 6.93556 19.8474 7.04734C19.5463 7.16295 19.225 7.1884 19.0271 7.40706C18.8449 7.60857 18.9067 7.50462 18.6347 7.58396C18.51 7.62039 18.4015 7.73149 18.3116 7.80608C18.1571 7.93435 18.1229 8.12855 18.0346 7.86495C18.0089 7.89709 17.9075 8.10176 17.8878 8.10695C17.7773 8.01196 17.7614 8.12456 17.6996 8.16483C17.7321 8.25238 17.6856 8.30973 17.5601 8.33691C17.4966 8.37515 17.4323 8.41263 17.3673 8.44929C17.1316 8.58169 16.8315 8.69528 16.6654 8.89257C16.543 8.83408 16.4976 8.73314 16.5722 8.6301C16.3382 8.80473 16.059 8.9841 15.9957 9.2529C15.9666 9.23017 15.9327 9.21376 15.8942 9.20367C15.7992 9.25561 15.9229 9.41037 15.9831 9.44522C16.2459 9.36257 15.9175 9.39253 16.0941 9.40586C16.1443 9.40962 16.196 9.4401 16.2515 9.44063C16.4143 9.44236 16.5672 9.43604 16.7286 9.41594C17.0845 9.37153 17.4343 9.28881 17.7788 9.20586C18.154 9.11553 18.5293 9.02535 18.8962 8.91455C19.1984 8.82332 19.4955 8.72163 19.7925 8.62031C19.9112 8.57981 20.0297 8.53879 20.1485 8.49859C20.3741 8.42227 20.4931 8.29686 20.4616 8.51169C20.6413 8.48753 20.797 8.28188 20.935 8.19795C21.1291 8.08 21.3474 7.99201 21.5774 7.93179C21.6705 7.9074 21.739 7.87639 21.8353 7.87616C21.8825 7.87609 21.9108 7.98388 21.9405 7.97801C22.1469 7.93751 22.0528 7.84493 22.1456 7.71154C22.3485 7.42001 22.8952 7.25878 23.2309 7.09318C23.444 6.98802 23.5952 6.84658 23.7919 6.73014C23.884 6.67572 23.9508 6.65163 24.0472 6.62859C24.121 6.61091 24.2116 6.7482 24.2595 6.61023C24.0878 6.5534 23.9462 6.48332 23.781 6.44184C23.6641 6.41241 23.8043 6.31177 23.6191 6.37169C23.5447 6.39578 23.5192 6.5123 23.4918 6.56107C23.285 6.41151 22.7034 6.56649 22.458 6.62912C22.441 6.63341 22.3653 6.60104 22.3296 6.603C22.1879 6.61068 22.0893 6.76506 21.996 6.8316C21.7481 7.00842 21.4791 7.08234 21.1738 7.18328C21.2551 6.82385 21.8522 6.67662 22.2007 6.53894C22.7102 6.33767 23.1845 6.08076 23.7423 5.97252C24.1138 5.90033 24.606 5.8423 24.7665 6.19201C24.8625 6.40165 24.8746 6.92246 24.5497 7.01918C24.5154 6.92133 24.6253 6.8377 24.6584 6.75279C24.335 6.85276 24.2817 7.16732 24.0361 7.33149C23.898 7.4237 23.8487 7.45328 23.7819 7.54241C23.7156 7.63093 23.6838 7.7135 23.5285 7.80767C23.2746 7.37101 23.3175 7.96913 23.1888 8.04417C23.2406 8.01399 22.9789 8.10213 23.0102 8.0928C22.9981 8.09641 22.8841 7.94692 22.8102 7.95008C22.6757 7.9558 22.7015 8.07571 22.6367 8.13608C22.4171 8.34037 22.1332 8.47436 21.7797 8.44221C21.7714 8.58757 21.8268 8.76122 21.5817 8.77447L21.5495 8.45223C21.4161 8.56152 21.2405 8.66532 21.1319 8.79186C21.0083 8.93585 21.0215 9.02452 20.8166 9.1205C20.6024 9.22084 20.1466 9.4185 19.8917 9.43559C19.9548 9.36318 19.9436 9.29776 19.8584 9.2395C19.7302 9.34654 19.541 9.35708 19.4045 9.45373C19.8782 9.61398 19.0405 9.6057 18.9343 9.62384C18.8631 9.63604 18.801 9.6885 18.729 9.70032C18.6333 9.71605 18.621 9.63461 18.5386 9.66043C18.4181 9.69821 18.467 9.80488 18.341 9.85847C18.2504 9.89701 18.0968 9.89648 17.9947 9.93307C17.7512 10.0204 17.2325 10.2138 17.068 9.97921C16.9846 10.3816 16.1329 10.1367 15.8177 10.1096C15.3859 10.0725 14.6339 9.90838 15.0344 9.44041ZM16.8478 5.32314C16.9089 5.28091 16.9701 5.284 17.0312 5.33247C16.9461 4.9683 17.6048 4.79149 17.8921 4.63665C18.2733 4.43131 18.7219 4.03289 19.2207 4.06443C19.1356 4.11547 19.0507 4.1665 18.9658 4.21753C19.0871 4.23026 19.2083 4.24298 19.3295 4.2557C19.2611 4.33699 19.1927 4.41821 19.1242 4.49943C19.0123 3.99992 18.4282 4.63056 18.2592 4.72246C18.089 4.81497 17.9193 4.88392 17.768 4.99676C17.6181 5.10854 17.4829 5.30982 17.2351 5.20925C17.2125 5.49454 16.9293 5.41716 16.7334 5.57515C16.7252 5.47602 16.7953 5.40594 16.8478 5.32314ZM19.4354 3.89906C20.0383 3.71622 20.5632 3.37817 21.1313 3.13669C21.674 2.90601 22.2276 2.69886 22.7793 2.48366C23.0591 2.37444 23.5717 2.09201 23.8916 2.23594C24.3232 2.43029 23.729 2.49299 23.5747 2.56029C23.5176 2.261 23.3176 2.53213 23.4371 2.69864C23.1077 2.58347 22.3894 3.03405 22.0751 3.1583C22.004 3.18645 22.0359 3.20271 21.955 3.23583C21.9351 3.24396 21.7289 3.28197 21.6699 3.298C21.3741 3.37817 21.1791 3.31449 21.0517 3.60361C21.025 3.53556 20.9983 3.46744 20.9716 3.39932C20.7864 3.73602 20.2235 3.8834 19.8636 4.0825C19.7708 4.13383 19.5058 4.33293 19.3881 4.29175C19.2243 4.2344 19.29 3.94309 19.4354 3.89906ZM30.3113 4.91418C30.5658 4.92781 30.3204 5.02393 30.3903 5.08746C30.3824 5.08031 30.5436 5.19164 30.5225 5.16108C30.551 5.20218 30.6193 5.20067 30.6542 5.28422C30.7746 5.57154 30.2489 5.86842 30.0716 6.03146C29.7269 6.34858 29.5277 6.75016 29.1685 7.05712C29.0062 7.19577 28.8448 7.29152 28.62 7.34323C28.4626 7.37944 28.2961 7.34067 28.1514 7.46322C28.0349 7.5619 28.0613 7.61798 27.9326 7.67044C27.7057 7.76295 27.6058 7.68181 27.3851 7.88173C27.1952 7.46367 27.7409 7.46435 28.0256 7.2307C28.4187 6.90816 28.8494 6.58275 29.218 6.2377C29.5454 5.93112 29.6766 5.66232 29.8321 5.28987C29.881 5.17244 29.9344 4.92066 30.0695 4.84697C30.2799 4.73225 30.1536 4.90568 30.3113 4.91418ZM31.563 15.7745C32.2306 15.1699 33.0587 14.6271 33.9564 14.2629C34.2772 14.1327 34.734 13.9618 35.0665 14.1623C35.3927 14.3587 35.3225 14.7507 35.191 15.0173C35.065 14.9772 35.1839 14.6025 35.1186 14.5099C34.976 14.3079 34.6683 14.4152 34.4589 14.4829C34.2137 14.5623 33.9948 14.6499 33.8006 14.7939C33.7218 14.8522 33.5709 14.9045 33.5204 14.9446C33.4445 14.9191 33.3998 14.9377 33.3864 15.0003C33.4021 15.0387 33.4002 15.0765 33.3808 15.1137C33.3697 15.1255 33.2711 15.0771 33.257 15.0868C33.1931 15.1311 33.1332 15.1833 33.0703 15.2244C32.9439 15.3072 32.8364 15.3463 32.7201 15.4616C32.4955 15.6845 32.1984 15.8151 31.9728 16.0274C31.9218 16.0755 31.8608 16.1985 31.8493 16.2093C31.7353 16.3171 31.5662 16.4024 31.4375 16.5165C31.215 16.7136 30.9775 16.846 30.7208 17.015C30.6103 17.0877 30.4813 17.1661 30.4078 17.2673C30.3743 17.3134 30.3555 17.5663 30.3542 17.5674C30.1025 17.7908 30.1515 17.3417 30.1705 17.2854C30.3749 16.6795 31.0661 16.2247 31.563 15.7745ZM30.1889 19.8714C30.2202 19.9665 30.2459 20.0452 30.2777 20.1418C30.0781 20.0092 30.0781 20.0092 30.1889 19.8714ZM29.9733 20.183C29.8999 20.2429 29.8262 20.3023 29.7519 20.3614C29.5886 20.2216 30.0032 20.1591 29.9733 20.183ZM29.8696 17.7772C29.7915 18.0329 29.5056 18.343 29.3091 18.5449C29.3308 18.5226 29.1414 18.5674 29.1198 18.5775C29.0498 18.6104 29.2175 18.8231 28.9749 18.728C28.8888 18.7674 29.0583 18.9281 28.9413 19C28.6033 18.3763 29.5263 17.836 29.8837 17.3731C30.0584 17.503 29.9135 17.6338 29.8696 17.7772ZM27.674 21.1489C27.9205 21.2003 28.0487 21.168 28.2151 20.972C28.3151 20.8542 28.3517 20.6457 28.5805 20.8219L28.6208 20.5954C28.9474 20.7038 28.92 21.0959 29.0627 21.3131C29.1321 21.0673 29.2966 20.3808 29.8002 20.4909C30.3655 20.6146 29.4246 21.4018 29.3372 21.5946C29.145 21.3531 29.2206 21.5778 29.074 21.6118C28.9482 21.6411 28.7517 21.5661 28.5989 21.5729C28.1338 21.5933 27.7253 21.7627 27.3006 21.9061C27.193 21.6713 27.0856 21.4365 26.978 21.2018C27.2281 21.2173 27.7451 20.6784 27.8186 21.0701C27.6331 21.044 27.5809 21.0506 27.4905 21.1873C27.5482 21.1636 27.6094 21.1508 27.674 21.1489ZM28.7179 24.2133C28.7171 24.2115 29.1989 24.2356 29.2418 24.2228C29.5715 24.1254 29.4496 23.8226 29.517 23.6086C29.6529 23.7098 29.5809 23.8944 29.6228 24.0253C29.672 24.1792 29.8144 24.3103 29.8276 24.4748C29.8576 24.8466 29.4808 24.7641 29.1952 24.8844C28.9512 24.9872 28.9241 25.1165 28.718 24.8395C28.6623 24.7645 28.5423 24.5692 28.5546 24.4733C28.5667 24.3783 28.7525 24.2993 28.7179 24.2133ZM29.1061 25.8221L28.9729 25.7013C29.3698 25.7996 29.1357 25.6517 29.227 25.4495C29.5317 25.6137 29.7802 25.7826 30.0212 25.4537L30.4377 26.8139C30.158 26.8672 29.7971 26.5172 29.6052 26.397C29.4944 26.3275 28.8794 26.0599 29.2487 25.982C29.2011 25.9287 29.1536 25.8754 29.1061 25.8221ZM31.8248 21.551C31.5936 21.729 31.3607 21.8286 31.1089 21.9686C30.8882 22.0914 30.9642 22.2324 30.7728 22.3694C30.6457 22.4605 30.3477 22.5532 30.1907 22.6227C29.911 22.7464 29.6604 22.77 29.3727 22.6315C29.451 23.1419 29.0193 23.1819 28.4818 23.283C28.2255 23.3312 28.0738 23.4049 27.8891 23.2149C27.7625 23.0848 27.713 22.8493 27.8704 22.7302C28.1204 22.5412 28.7864 22.6064 29.1071 22.4875C29.3505 22.3973 29.5984 21.8892 29.8987 22.0741C29.7437 21.8742 29.9242 21.8204 30.0589 21.6779C30.2064 21.5217 30.2971 21.3391 30.4497 21.1842C30.7398 20.8898 31.1851 20.5936 31.597 20.416C31.9595 20.2598 32.1498 20.3704 32.2041 20.6984C32.2314 20.8633 32.2304 21.109 32.1163 21.2554C32.08 21.302 31.96 21.3026 31.9236 21.3464C31.8603 21.4229 31.9184 21.4788 31.8248 21.551ZM36.0783 17.5921C36.3675 17.7734 36.3393 18.1543 36.3849 18.4137C36.4491 18.7793 36.4025 19.133 36.3957 19.5054C36.3884 19.8956 36.152 20.1497 36.0407 20.5154C35.9171 20.9221 35.7575 21.1376 35.48 21.4789C35.7809 21.5172 35.3331 22.2447 35.2593 22.3388C35.1792 22.4411 34.533 22.9121 34.81 22.9121C34.6572 23.0753 34.4908 23.2428 34.3385 23.4015C34.2785 23.4639 34.1734 23.4885 34.1262 23.5326C34.0299 23.6222 34.0241 23.7022 33.9552 23.8068C33.8506 23.9655 33.8162 23.9232 33.6787 24.0383C33.5838 24.1179 33.5215 24.2229 33.4283 24.2992C33.1278 24.5448 33.0895 24.3436 32.9215 24.1544C32.8958 24.2051 32.85 24.2368 32.7843 24.2497C32.7317 24.0356 33.0939 23.8194 33.2461 23.6893C33.4956 23.4761 33.7235 23.2413 33.944 23.0082C34.4163 22.5086 34.8407 21.978 35.1756 21.4095C35.5318 20.8045 35.8164 20.1498 35.9642 19.4898C36.0769 18.9868 36.184 18.1239 35.3538 17.9959C34.75 17.9029 34.0843 18.1999 33.5866 18.4404C33.2832 18.5869 32.9782 18.7325 32.6893 18.8973C32.3756 19.076 32.1045 19.3289 31.7641 19.4723C31.9503 19.3939 31.3359 19.6299 31.43 19.5635C31.3859 19.5945 31.4239 19.6893 31.3948 19.7321C31.3569 19.7877 31.2251 19.8426 31.1659 19.8786C31.0098 19.9736 30.7602 20.0708 30.6892 20.2277C29.6986 19.6554 31.6686 18.6396 32.1736 18.3808C33.1753 17.8677 34.9183 16.8651 36.0783 17.5921ZM38.7505 12.027C38.741 11.615 39.1555 11.0524 39.4354 10.7164C39.5723 10.552 39.7911 10.5585 39.8713 10.3645C39.9176 10.2528 39.8569 10.1357 39.8707 10.0235C39.8892 9.87187 39.9705 9.75023 40.0642 9.61986C40.9114 8.44131 41.9407 7.39818 43.0371 6.36996C43.5777 5.86307 44.0902 5.33669 44.6732 4.86051C44.9168 4.66164 45.5713 3.9467 45.9458 4.01821C46.1441 4.05608 46.2595 4.30109 46.349 4.42612C46.497 4.63289 46.6598 4.82657 46.8397 5.01671C47.3145 5.5187 47.8621 5.95935 48.5089 6.31516C48.9127 6.53751 49.3208 6.75362 49.7157 6.98659C50.0408 7.17831 50.5323 7.39751 50.7644 7.66668C50.9967 7.93593 50.6557 8.16393 50.4693 8.38749C50.1796 8.73518 49.9131 9.09543 49.6223 9.44274C49.5067 9.37545 49.5365 9.23875 49.4573 9.15256C49.3871 9.07616 49.2877 9.04507 49.1906 8.99788C49.0046 8.90763 48.822 8.79728 48.654 8.9485C48.36 9.21316 48.7643 9.83875 49.2001 9.7701C49.2514 10.0313 48.3812 10.4615 48.1631 10.6053C47.4937 11.0462 46.8032 11.4296 45.919 11.4695C45.5612 11.4856 45.1889 11.4636 44.8489 11.3666C44.686 11.3202 44.5059 11.2564 44.3811 11.1552C44.2316 11.034 44.1935 10.8537 44.0485 10.7337C43.9227 10.6296 43.7499 10.6135 43.6243 10.5091C43.4984 10.4045 43.4362 10.2394 43.3852 10.1039C43.2853 9.83935 43.2664 9.56031 43.1705 9.29513C43.1128 9.13563 43.0653 8.92238 42.8771 9.07563C42.6037 9.29829 42.741 9.9984 42.811 10.2652C42.9111 10.6457 43.1459 10.9526 43.3918 11.28C43.6584 11.6352 43.7568 11.9647 43.8046 12.3757C43.894 13.145 44.1667 13.8833 44.591 14.5755C44.7696 14.867 44.9835 15.141 45.1763 15.4258C45.2664 15.5586 45.4682 16.0119 45.7132 16.0095C46.1046 16.0056 45.5471 15.0815 45.4697 14.9264C45.041 14.0671 44.6315 13.164 44.5396 12.2336C45.1542 12.3618 45.8241 12.4835 46.4606 12.4022C46.0498 13.1461 46.4789 13.8867 46.4264 14.6524C46.4001 15.0363 46.3812 15.3906 46.3909 15.7734C46.3996 16.1091 46.2123 16.4447 46.0505 16.7483C45.729 17.3511 45.3243 18.0948 44.7273 18.5566C44.2282 18.9427 43.5605 18.9729 42.9083 18.884C41.4248 18.6816 40.45 17.7583 39.8274 16.7096C39.4274 16.0359 39.1216 15.3167 38.9318 14.5851C38.712 13.7383 38.77 12.8859 38.7505 12.027ZM40.6771 6.3205C39.2927 5.50944 41.3045 4.5884 42.3285 4.71381C42.5687 4.74316 43.0107 4.82356 42.9882 5.07738C42.9698 5.28483 42.5424 5.51606 42.3783 5.6441C41.9104 6.00948 41.4343 6.76393 40.6771 6.3205ZM50.7485 24.3421C50.701 24.3076 50.3136 24.3922 50.467 24.2066C50.5946 24.0523 50.9482 24.2456 51.0767 24.2853C50.9708 24.3445 50.8787 24.4363 50.7485 24.3421ZM44.9838 34.1515C44.8648 34.1634 44.7404 33.9036 45.1694 34.0977C45.1075 34.1156 45.0456 34.1336 44.9838 34.1515ZM44.9715 38.3864C44.9863 38.5029 45.0303 38.5797 44.9281 38.6643C44.8417 38.5782 44.8306 38.4566 44.9715 38.3864ZM45.1456 40.1362C45.133 40.1996 45.1204 40.263 45.1079 40.3263C45.0088 40.2857 44.9099 40.2451 44.8108 40.2045C44.9223 40.1818 45.0341 40.159 45.1456 40.1362ZM45.2669 38.6607C45.4145 38.7054 45.3458 38.5625 45.453 38.5424C45.4914 38.6912 45.4441 38.8187 45.3386 38.9414C45.3285 38.9124 45.2744 38.6629 45.2669 38.6607ZM49.0398 28.1019C48.8327 28.0805 48.8014 28.2577 48.6469 28.3264C48.5473 28.3708 48.2438 28.3375 48.1872 28.4224C48.262 28.4399 48.3368 28.4574 48.4116 28.4749C48.2404 28.5496 48.0693 28.6243 47.8981 28.699C48.3098 28.699 48.7387 28.5398 49.1476 28.5865C49.3204 28.6063 49.4471 28.6536 49.5555 28.7674C49.6213 28.8365 49.6792 28.9477 49.6897 29.0323C49.7012 29.1238 49.6131 29.1871 49.6287 29.2307C49.8129 29.2348 49.7912 29.4795 49.7498 29.5792C49.6601 29.7955 49.3038 30.1341 48.9844 29.997C49.118 30.1505 49.084 30.2381 48.8864 30.3271C48.9044 30.2764 48.9176 30.1877 48.8166 30.1965C48.7907 30.2815 48.8006 30.4164 48.7148 30.4806C48.6188 30.5523 48.5331 30.4684 48.4412 30.5151C48.3323 30.5705 48.3651 30.6574 48.2795 30.7175C48.1662 30.7968 48.15 30.7405 48.0147 30.7559C47.8097 30.7794 47.9405 30.6763 47.7763 30.8107C47.7195 30.8571 47.7291 30.9777 47.6371 31.0456C47.4602 31.1759 46.9884 31.3117 46.819 31.1446C46.4118 31.6672 45.191 31.7926 44.6228 31.3801C43.7166 30.7221 45.4063 29.384 45.9642 28.9599C46.5242 28.5343 47.1461 28.1667 47.7754 27.8118C48.1329 27.6103 48.4999 27.4273 48.8745 27.2477C49.1056 27.1368 49.3959 26.9344 49.6799 26.9538C49.9346 26.9713 50.1523 27.1313 50.4205 27.163C50.6144 27.1859 50.9912 27.2237 50.7465 27.4367C50.6321 27.5362 50.1827 27.6971 50.0296 27.7214C49.9397 27.7356 49.845 27.7083 49.7559 27.7231C49.6051 27.7482 49.5016 27.8512 49.3375 27.8381C49.3895 28.0352 49.2946 28.1281 49.0398 28.1019ZM51.7218 20.7831C51.7219 20.9373 51.3742 20.8989 51.3016 20.8465C51.182 20.7603 51.1779 20.5026 51.1335 20.3854C51.3356 20.4265 51.7216 20.5772 51.7218 20.7831ZM48.9209 15.6948C49.6513 15.2088 50.4192 14.7632 51.2309 14.3707C51.5217 14.2302 51.9321 13.9467 52.2932 13.9821C52.4446 13.997 52.7577 14.1378 52.6437 14.2931C52.6224 14.3221 52.4538 14.3338 52.4018 14.3549C52.3427 14.3787 52.2964 14.4445 52.2417 14.4771C51.8624 14.7023 51.4067 14.8408 51.0261 15.0715C50.7134 15.2609 50.4218 15.4729 50.0851 15.6355C49.7622 15.7914 49.4247 15.8901 49.1181 16.0627C49.1241 16.0593 48.7193 16.1772 48.7987 16.1986C48.4433 16.1023 48.8187 15.7629 48.9209 15.6948ZM53.7903 15.5138C54.2242 15.3738 54.6487 15.2039 55.1029 15.1098C55.3296 15.0628 55.5622 15.0275 55.7969 15.0487C55.8368 14.9921 55.8899 14.9796 55.9562 15.0112C56.008 15.0756 56.0763 15.1251 56.161 15.1596C56.2905 15.2402 56.7669 15.3455 56.6717 15.5233C56.6088 15.641 56.131 15.6508 55.9999 15.6772C55.6047 15.7569 55.2362 15.9362 54.8291 15.9802C54.7909 15.9844 54.6661 15.9469 54.6647 15.9471C54.5059 15.9752 54.3737 16.1087 54.2372 16.1726C53.9434 16.3103 53.5214 16.3334 53.3104 16.5711C53.9935 16.946 54.5862 16.5741 55.1868 16.291C55.5465 16.1215 55.9327 15.9992 56.3259 15.8905C56.5313 15.8338 56.7386 15.7748 56.9469 15.7249C57.0331 15.6995 57.1217 15.6812 57.2126 15.67C57.2972 15.6563 57.3577 15.6813 57.3942 15.7448C57.646 15.738 57.6676 15.6101 57.8191 15.8487C58.0327 16.185 57.7059 16.1679 57.3987 16.2092C56.9727 16.2664 56.5395 16.3953 56.1198 16.4807C56.023 16.5005 55.1741 16.6598 55.1731 16.6655C55.1346 16.8824 57.5709 16.6815 57.78 16.649C58.1491 16.5915 58.545 16.4282 58.9271 16.4676C59.2205 16.4977 59.8888 16.8463 59.4208 17.0778C59.3287 16.7207 59.0124 17.0156 58.8473 17.1361C58.6273 17.2965 58.3122 17.2811 58.0105 17.344C57.5979 17.4298 56.5417 17.7518 56.2487 17.3413C56.3414 17.7011 54.6578 17.5182 54.4263 17.5063C54.2007 17.4947 53.9094 17.5335 53.6913 17.4814C53.5491 17.4475 53.4699 17.3726 53.3361 17.3557C53.3033 17.3843 53.2639 17.4038 53.2182 17.4141C53.1503 17.3863 53.0891 17.351 53.0344 17.3081C52.5835 17.1403 51.8859 17.0476 52.1364 16.5131C52.3728 16.009 53.2172 15.6988 53.7903 15.5138ZM58.0165 15.8253C58.0277 15.7939 58.039 15.7626 58.0501 15.7311C58.0515 15.8274 58.3351 15.8685 58.3023 15.9932C58.2297 16.2694 57.9025 15.8544 57.8744 15.8092C57.9218 15.8146 57.9691 15.8199 58.0165 15.8253ZM59.7477 16.2842C59.7805 16.3973 60.1576 16.6382 60.0641 16.6938C59.9155 16.5301 59.5046 16.6044 59.7477 16.2842ZM53.3872 26.6071C53.5253 26.3854 53.9426 26.7629 53.8985 26.3844C54.1254 26.4011 53.9838 26.5409 54.2557 26.4794C54.3576 26.4564 54.4265 26.3649 54.5507 26.3439C54.5838 26.3382 54.7269 26.3474 54.7762 26.3462C54.9397 26.3421 55.5807 26.3274 55.1395 26.1537C55.3864 26.0215 55.4168 26.0886 55.6397 26.2097C55.5825 25.9594 55.9104 26.1015 56.0631 26.1327C55.9542 25.9899 56.2243 25.838 56.312 25.7415C56.2806 25.8902 56.2971 26.0566 56.5628 25.9616C56.629 25.9379 56.6142 25.8328 56.6667 25.8157C56.7628 25.7843 56.8165 25.8414 56.851 25.8382C56.885 25.8351 56.9565 25.8505 57.0278 25.8288C57.1205 25.8005 57.0757 25.6998 57.1932 25.6849C57.2698 25.6751 57.3256 25.7662 57.4191 25.767C57.467 25.7674 57.5471 25.7279 57.5835 25.73C57.5899 25.7304 57.6356 25.6413 57.6916 25.6391C57.7736 25.6359 57.807 25.8137 57.8369 25.8483C57.9805 26.0131 58.1713 26.1206 58.3915 26.2085C57.9932 26.5042 57.1898 26.4729 56.689 26.5725C56.4177 26.6266 56.1863 26.7045 55.9381 26.8049C55.8782 26.8365 55.8266 26.8751 55.7835 26.921C55.7484 26.9021 55.7131 26.8832 55.678 26.8643C55.542 26.8711 55.4133 26.8166 55.2602 26.8375C54.7873 26.9021 54.417 27.189 53.9364 27.2529C53.7204 27.2816 53.5429 27.3217 53.4023 27.1701C53.2788 27.0372 53.2993 26.7485 53.3872 26.6071ZM52.7388 24.8402C52.846 24.9136 52.717 25.1525 52.9245 25.1266C53.0718 25.1081 53.0424 24.9232 53.158 24.884C53.31 24.8325 53.4016 24.9546 53.5444 24.9433C53.8106 24.922 53.7953 24.7339 53.5704 24.6512C53.8043 24.6012 53.8792 24.8251 54.0862 24.8231C54.3581 24.8204 54.2933 24.5607 54.5247 24.5176C54.6249 24.4989 54.5914 24.6181 54.6564 24.6329C54.7865 24.6625 54.8772 24.6117 54.9923 24.567C55.0953 24.527 55.1686 24.4498 55.2812 24.4236C55.3324 24.4116 55.4626 24.4335 55.5001 24.4113C55.5759 24.3666 55.6438 24.1924 55.7183 24.1694C55.7031 24.1741 55.9476 24.2733 55.9826 24.2826C55.9612 24.3561 55.9114 24.3649 55.8333 24.3089C55.8333 24.4748 56.403 24.5266 56.2862 24.3214C56.5943 24.4247 56.3648 24.4779 56.334 24.622C56.3218 24.68 56.2801 24.6784 56.2925 24.7397C56.2982 24.7679 56.4597 24.7436 56.4576 24.782C56.444 25.0298 55.4689 25.1059 55.2842 25.1278C54.9017 25.173 54.5398 25.2491 54.1711 25.3428C53.8966 25.4126 53.4234 25.6124 53.1313 25.6C52.7112 25.5822 52.6564 25.1384 52.7388 24.8402ZM51.8001 22.3124C51.6976 22.0368 52.0263 21.4676 52.4543 21.5388C52.5595 21.5562 52.5855 21.6268 52.6671 21.6581C52.7811 21.702 52.9664 21.6789 53.0653 21.7242C53.2868 21.8257 53.1751 22.0844 53.3972 22.1779C53.0467 22.2467 51.9629 22.7504 51.8001 22.3124ZM52.2057 23.3831C52.3567 23.3174 52.6015 23.3089 52.7044 23.1826C52.7557 23.2113 52.8526 23.3859 52.9446 23.3592C52.9875 23.3467 53.0319 23.2521 53.0288 23.2522C53.1107 23.2503 53.127 23.1605 53.2522 23.1706C53.3671 23.1799 53.4958 23.2918 53.5981 23.3335C53.5806 23.0562 53.6683 23.0297 53.946 22.8812C54.0069 22.8487 54.0578 22.7266 54.1139 22.6773C54.0602 22.9683 54.1956 22.9698 54.4826 23.0136C54.8424 23.0684 55.0666 23.2248 55.2107 23.5062C54.9041 23.4578 54.5087 23.5161 54.3878 23.7829C54.1431 23.421 53.2538 23.9205 52.9661 24.0228C52.7525 24.0987 52.5041 24.2008 52.3251 24.0238C52.199 23.8992 52.2712 23.7492 52.2739 23.6385C52.2747 23.6037 52.319 23.6017 52.3149 23.5499C52.3097 23.4838 52.2035 23.4574 52.2057 23.3831ZM55.479 29.0753C55.3981 29.1001 54.9813 29.1141 54.9786 29.0023C54.9764 28.9035 55.7142 29.003 55.479 29.0753ZM54.8021 28.7137C54.4867 28.8711 54.1339 28.3165 54.018 28.1567C54.3488 28.191 54.5102 27.967 54.7051 27.7967C54.8905 28.1256 55.172 27.9518 55.4681 27.8419C55.8172 27.7124 56.1999 27.7114 56.5576 27.6075C56.6693 27.575 56.7722 27.5268 56.8812 27.4897C56.9689 27.4631 57.0564 27.4358 57.1435 27.4079C57.2053 27.3628 57.2274 27.3071 57.2093 27.2412C57.18 27.1858 57.2 27.1508 57.2693 27.1363C57.3517 27.1562 57.4357 27.1678 57.5216 27.1709C57.6595 27.1488 57.8576 27.0435 57.6912 26.9299C57.8695 26.7988 58.0481 26.9292 58.2198 26.9866C58.179 26.8925 58.1383 26.7983 58.0975 26.7041C58.1827 26.7334 58.4356 27.0194 58.4613 27.0179C58.6247 27.0079 58.6077 26.8304 58.7016 26.7587C58.7558 26.8128 58.7714 27.2164 58.9844 27.0804C59.0755 27.0223 58.8794 26.8243 58.831 26.7792C59.0748 26.8238 59.2876 27.0594 59.3535 27.2423C59.2378 27.2559 59.1308 27.2371 59.0325 27.1857C58.9696 27.4404 59.552 27.3372 59.6463 27.4703C59.8309 27.7308 58.6299 27.9118 58.4735 27.936C58.1604 27.9843 57.7908 28.0023 57.5038 28.1147C57.2289 28.2222 57.1638 28.253 56.8425 28.2732C56.4757 28.2962 56.1179 28.3941 55.7631 28.4702C55.4551 28.5363 55.0751 28.5774 54.8021 28.7137ZM61.5049 19.3881C61.7945 19.3037 62.7699 18.8658 63.0182 19.0606C62.992 19.0399 63.1973 19.3833 63.1951 19.3617C63.2128 19.5403 63.2074 19.6122 62.9359 19.6978C62.7414 19.7591 62.572 19.6289 62.397 19.6806C62.2049 19.7374 62.3393 19.838 62.2404 19.9082C62.132 19.9852 61.923 20.0185 61.7881 20.0522C61.4579 20.1348 61.1251 20.2038 60.7964 20.2928C60.1277 20.4738 59.4196 20.6423 58.7324 20.7703C58.2189 20.866 57.3472 21.1038 56.874 20.8229C56.8278 20.9826 56.7149 20.9607 56.5582 20.984C56.4352 21.0022 56.2128 21.0515 56.1035 21.0541C55.9216 21.0584 55.4157 21.0198 55.4854 20.8131C55.4662 20.87 55.8788 20.6752 55.8074 20.6631C55.9826 20.693 55.9258 20.6216 56.0694 20.5818C56.2569 20.53 56.4529 20.5327 56.6443 20.4778C57.1269 20.3393 57.5316 20.1595 58.041 20.0727C59.2045 19.8746 60.3825 19.7151 61.5049 19.3881ZM14.864 40.7348C14.7697 40.7368 14.6964 40.52 14.9832 40.6748C14.9435 40.6948 14.9038 40.7148 14.864 40.7348ZM12.5984 40.4542C12.4702 40.4808 12.4191 40.4228 12.4452 40.2805C12.624 40.2232 12.675 40.2811 12.5984 40.4542ZM10.8494 40.1637C10.8165 40.0368 10.9327 40.0082 11.0381 39.9512C11.0275 40.1194 11.0275 40.1194 10.8494 40.1637ZM6.44852 39.1194C6.27123 39.0878 6.035 38.9474 5.99438 39.1831C5.96472 39.1286 5.81337 38.8719 5.87836 38.8125C5.91229 38.7814 6.04077 38.9252 6.0271 38.9109C6.18226 38.6568 6.44973 38.9635 6.59922 39.0542C6.54901 39.0759 6.49872 39.0977 6.44852 39.1194ZM52.5427 11.0354C52.6039 10.9307 52.6761 10.8974 52.759 10.9357C52.6287 11.1808 52.1873 11.3136 52.5427 11.0354ZM55.6097 8.7348C55.719 8.90078 55.5545 8.97093 55.4371 9.1089C55.5058 8.96009 55.5534 8.85697 55.6097 8.7348ZM68.9391 24.9368C69.3334 24.9367 70.1735 24.7682 70.4113 25.1332C70.5687 24.8852 70.7475 25.3503 70.8841 25.4249C70.8995 25.4333 70.9978 25.3724 71.0436 25.3948C71.1125 25.4286 71.172 25.5207 71.2115 25.5754C71.3306 25.7404 71.3819 25.9366 71.4479 26.1181C70.7591 26.1181 70.0528 25.9883 69.3646 25.9411C68.9129 25.9101 68.47 25.9092 68.0176 25.9289C67.9277 25.9328 67.7492 25.9088 67.6723 25.9225C67.5942 25.9364 67.4526 26.0652 67.3665 26.0445C67.5003 26.2478 69.2136 26.74 69.3443 26.5149C69.1894 26.439 68.8455 26.3807 68.8457 26.1974C68.846 25.992 69.1684 25.9923 69.3393 25.9984C69.713 26.0116 70.3389 26.1123 70.4921 26.427C70.5577 26.5619 70.5779 26.9015 70.5057 27.0317C70.4592 27.1158 70.3803 27.2169 70.2554 27.234C70.2042 27.241 70.1303 27.1858 70.1225 27.1871C69.8661 27.2312 69.3915 27.3979 69.1119 27.1628C68.9103 27.3741 67.9389 27.1433 67.6415 27.0636C67.1215 26.9242 66.4054 26.7328 66.0895 26.3399C65.7044 25.861 66.4873 25.4563 66.9368 25.2616C67.5512 24.9956 68.2532 24.937 68.9391 24.9368ZM71.5636 26.0441C71.6846 26.0717 71.8054 26.0994 71.9263 26.127C71.8939 26.2986 71.417 26.1628 71.5636 26.0441ZM75.218 32.2824C75.2552 31.5948 75.0097 30.9892 74.8679 30.3242C74.8328 30.1594 74.8687 29.8711 74.714 29.7356C74.5662 29.606 74.2365 29.7113 74.2234 29.4822C74.0779 29.6202 74.0926 29.649 73.9132 29.4903C73.946 29.5584 73.9507 29.6276 73.9275 29.698C73.8162 29.6464 73.4129 29.4749 73.4468 29.7094C73.1152 29.65 73.2113 29.4821 73.0221 29.3539C72.9952 29.3357 72.8873 29.4003 72.8451 29.3728C72.7691 29.3229 72.7314 29.2775 72.6673 29.2133C72.5858 29.293 72.4748 29.3507 72.3751 29.4138C72.3172 29.3116 72.2044 29.2367 72.0689 29.2118C72.1956 29.4265 72.5089 29.7046 72.0792 29.8267C71.8227 29.8996 71.4026 29.8102 71.1309 29.8273C70.1241 29.8905 69.0214 29.7128 68.0479 29.5186C67.0479 29.3191 66.0366 29.0375 65.1372 28.6259C64.9455 28.5381 64.8248 28.4343 64.6597 28.3254C64.4992 28.2196 64.3825 28.2029 64.1896 28.1352C63.8424 28.0134 63.5248 27.8181 63.2607 27.6004C62.6928 27.1323 62.1651 26.5201 62.3232 25.8347C62.4809 25.1516 63.0608 24.6178 63.6814 24.168C64.4142 23.6367 65.2417 23.1931 66.1199 22.8355C66.5126 22.6757 67.517 22.0752 67.9049 22.4265C68.1529 22.651 68.0134 22.9374 67.6746 22.9873C67.5911 22.9997 67.5038 22.9543 67.4193 22.9853C67.2975 23.0302 67.3403 23.0832 67.29 23.1206C67.2027 23.1856 67.11 23.2869 66.9795 23.3432C66.5243 23.5397 66.0842 23.6955 65.649 23.9348C65.4484 24.0451 65.2553 24.0925 65.0785 24.1888C64.9026 24.2845 64.8626 24.4429 64.6261 24.3451C64.7103 24.6237 64.2046 24.9219 64.0064 25.0925C63.6993 25.3567 63.3312 25.694 63.4744 26.0849C63.7549 26.8501 65.0221 27.4313 65.8331 27.7676C66.8451 28.1874 67.9612 28.5215 69.088 28.6598C69.6482 28.7285 70.2272 28.771 70.7916 28.8145C71.2311 28.8485 71.9054 28.7242 72.2216 29.0447C72.2314 28.671 73.6727 28.704 73.9795 28.6562C73.3645 26.9539 72.1567 25.4404 70.8656 24.0263C70.232 23.3321 69.6096 22.6182 68.8874 21.9819C68.0966 21.2852 67.1932 20.6627 66.3348 20.0216C64.6512 18.7644 62.7471 17.6423 60.8094 16.6538C58.8763 15.6676 56.8743 14.6971 54.7564 13.994C52.3375 13.1909 49.7909 12.6628 47.2415 12.2129C47.5873 11.8561 48.1499 11.6821 48.5927 11.4211C48.7477 11.3297 48.9573 11.1103 49.1586 11.0804C49.3767 11.0479 49.5484 11.2378 49.7037 11.3332C50.1493 11.6069 50.4575 11.4907 50.9678 11.4742C51.2732 11.4643 51.9964 11.602 52.1252 11.2676C52.2964 11.4521 52.0481 11.6001 51.921 11.7355C52.0135 11.8399 52.0881 11.7316 52.1795 11.7152C52.2076 11.6963 52.2357 11.6774 52.2639 11.6585C52.3093 11.6053 52.3502 11.605 52.3865 11.6574C52.441 11.7238 52.4958 11.7091 52.5511 11.6133C52.5662 11.6056 52.5813 11.5979 52.5964 11.5902C52.6624 11.5617 52.7261 11.5167 52.7875 11.4813C53.2513 11.2129 53.6646 10.9843 54.1766 10.7867C54.6066 10.6208 54.3753 10.3033 54.6588 10.0792C54.7229 10.0284 54.8309 10.0539 54.8995 10.0109C54.9666 9.96867 54.9767 9.9208 55.0257 9.87556C55.1435 9.76679 55.0033 9.64056 55.3038 9.77371L55.1954 9.27985C55.7845 9.74263 55.7822 8.4109 55.8627 8.21384C55.8521 8.23988 55.9156 8.03823 55.9155 8.03996C55.9328 7.64033 56.0002 7.35068 55.4221 7.3275C55.641 7.21602 55.7079 7.43371 55.809 7.20834C55.8596 7.09544 55.7016 6.90138 55.9534 6.97417C56.0064 6.7342 55.954 6.54 55.888 6.3068C55.8203 6.06811 55.8601 5.90884 55.8632 5.67015C55.8666 5.39939 55.7101 5.12728 55.66 4.86066C55.6207 4.65186 55.6612 4.32254 55.3278 4.39924C55.2809 4.33985 55.4456 4.15717 55.4389 4.06684C55.4285 3.92653 55.2404 3.78396 55.1871 3.64923C55.1088 3.71471 54.9983 3.73654 54.8917 3.70696C54.9918 3.5239 54.8978 3.4624 54.802 3.30455C54.747 3.21415 54.7802 3.11434 54.6626 3.04956C54.5952 3.01237 54.4803 3.075 54.4275 3.03142C54.3143 2.93808 54.3561 2.81426 54.2782 2.69126C54.1805 2.53703 53.9573 2.41923 53.8035 2.30346C52.9388 1.65272 51.9997 1.1554 50.8495 0.901126C49.6892 0.644596 48.3364 0.552688 47.18 0.848585C46.7178 0.966839 46.3075 0.95472 45.8914 1.17557C45.7565 1.24723 45.742 1.22803 45.6735 1.34749C45.6577 1.37534 45.8013 1.44949 45.7134 1.49503C45.6178 1.54448 45.5123 1.44392 45.4636 1.36044C44.8617 1.71317 44.2978 2.1834 43.955 2.72257C43.6144 3.25834 43.5832 3.88777 43.4531 4.47C42.8532 3.91509 42.0418 3.64908 41.1596 3.91584C40.3907 4.14828 39.7949 4.65924 39.6445 5.32118C39.5527 5.72472 39.6529 6.13338 39.8793 6.49747C39.9772 6.65479 40.0957 6.82897 40.2757 6.93488C40.418 7.01858 40.6618 7.00684 40.7288 7.15784C40.8316 7.38915 40.2382 7.88873 40.0842 8.09122C39.8056 8.45765 39.5467 8.83604 39.3496 9.23627C38.6429 8.42806 37.9665 7.54534 37.163 6.80014C36.4047 6.09679 35.5007 5.46601 34.6141 4.8715C32.7739 3.63763 30.8604 2.47846 28.802 1.49548C26.8853 0.580163 24.5701 0.071997 22.3363 0.251673C20.1537 0.427284 18.4827 1.54493 17.0766 2.83398C14.373 5.31245 12.717 8.84507 12.5553 12.1444C12.5067 13.1355 12.5999 14.1136 12.9022 15.0749C13.0462 15.5327 13.0253 15.9829 13.109 16.4465C13.2034 16.9695 13.3668 17.4906 13.5247 18.0029C14.1264 19.9545 14.893 21.9046 15.7532 23.7915C16.2005 24.7728 16.7417 25.7321 17.4738 26.5973C17.8119 26.997 18.2499 27.3097 18.6138 27.6892C18.9668 28.0573 19.06 28.5091 19.1377 28.9607C19.3238 30.0437 19.4473 31.1312 19.5592 32.2205C19.6067 32.6821 19.6622 33.1397 19.7377 33.5981C19.8035 33.9978 19.6379 33.9782 19.2226 34.1139C19.3069 33.7548 17.3228 33.9991 17.1355 34.0236C16.9316 34.0503 16.7157 34.0507 16.5552 34.0719C16.3756 34.0955 16.1999 34.1298 15.9932 34.125C15.6893 34.1179 15.1202 34.055 15.0042 34.3691C14.9243 34.005 14.3969 34.4032 14.7871 34.3356C14.3865 34.3718 13.9778 34.3115 13.5723 34.342C13.1077 34.377 12.6391 34.4102 12.1777 34.4668C11.8565 34.5062 11.5499 34.6064 11.2282 34.6355C10.8164 34.6727 10.3868 34.6693 9.97101 34.6989C8.43753 34.8084 6.84809 35.0793 5.35747 35.3894C5.01981 35.4596 4.63186 35.5095 4.30927 35.6223C4.2229 35.6524 4.14518 35.7198 4.06244 35.7457C3.92374 35.7891 3.9427 35.7591 3.81952 35.779C3.08146 35.8985 2.32007 36.0936 1.5821 36.2467C1.17277 36.3317 0.506947 36.4083 0.173049 36.6396C0.0233735 36.7432 -0.10743 36.9269 0.132423 37.0446C0.324027 37.1386 0.597497 36.9886 0.752564 36.9074C0.614417 37.1989 0.353869 37.3442 0.494583 37.6759C0.605678 37.938 0.856501 38.261 1.2424 38.0919C1.29409 38.1892 1.31501 38.3828 1.4672 38.4186C1.60395 38.4507 1.70296 38.3104 1.83692 38.3435C1.88489 38.3553 1.86667 38.4287 1.90962 38.4479C1.98362 38.4808 2.05865 38.4948 2.14343 38.5181C2.21632 38.5381 2.33364 38.5792 2.40969 38.5836C2.45794 38.5864 2.57164 38.5195 2.57126 38.5195C2.68208 38.5331 2.74167 38.7048 2.82144 38.7545C2.925 38.8189 3.01053 38.8336 3.14022 38.8569C3.40982 38.9054 3.75733 38.9885 3.93527 38.765C3.89455 38.9246 4.16257 38.9089 4.28082 38.9292C4.26771 38.8451 4.21035 38.7681 4.12185 38.7219C4.38625 38.7361 4.27906 38.9489 4.47447 39.0051C4.61373 39.0451 4.59793 38.9435 4.70447 38.9322C4.84485 38.9173 4.95139 38.9998 5.1706 38.9237C5.21811 39.0947 5.23549 39.2671 5.49478 39.2926C5.64696 39.3076 6.00181 39.085 5.98173 39.2702C6.32171 39.1895 6.45075 39.2441 6.62841 39.4867C6.65843 39.3377 6.80374 39.3809 6.93706 39.3718C7.14837 39.3572 7.15376 39.3709 7.31757 39.2741C7.33253 39.2652 7.46139 39.0263 7.51865 39.1748C7.5444 39.2413 7.37418 39.3979 7.31115 39.4377C7.38943 39.4698 7.64592 39.582 7.74456 39.5614C7.8299 39.5435 7.83018 39.4254 7.93272 39.4193C7.90762 39.4872 7.88262 39.5552 7.85742 39.6231C8.05693 39.6466 8.22362 39.5385 8.38119 39.4593C8.53143 39.7669 8.96084 39.5936 9.19437 39.8251C9.31792 39.9475 9.32369 40.0406 9.55908 40.0725C9.79995 40.1053 10.0103 40.0197 10.215 40.1806C10.1502 40.0808 9.98849 39.998 10.1491 39.8907C10.2585 40.0163 10.3149 40.1676 10.441 40.2844C10.4583 40.225 10.4757 40.1657 10.4931 40.1062C10.8217 40.3908 11.2354 40.3933 11.6564 40.5511V40.3428C11.9578 40.7152 11.9739 40.4795 12.3339 40.3274C12.3095 40.4369 12.2849 40.5465 12.2605 40.6559C12.5196 40.6401 12.7617 40.8887 12.9744 40.6775C13.1029 40.852 13.2586 40.7661 13.4691 40.8215C13.5889 40.8531 13.678 40.9485 13.7945 40.983C13.9692 41.0348 14.0214 41.0324 14.1858 41.0775C14.3321 41.1176 14.4152 41.1955 14.5982 41.2205C14.7171 41.2368 14.825 41.2356 14.9388 41.2311C14.9827 41.2294 14.9682 41.1493 15.0659 41.168C15.217 41.197 15.3295 41.3504 15.4383 41.429C15.6019 41.096 16.06 41.5421 16.2815 41.6015C16.3027 41.5161 16.2989 41.4132 16.3752 41.3431C16.4648 41.5021 16.499 41.6357 16.685 41.738C16.7924 41.7971 16.9501 41.8394 17.0741 41.861C17.1525 41.8747 17.2949 41.8583 17.3442 41.8779C17.4282 41.9112 17.4592 42.0003 17.544 42.0086C17.594 42.0135 17.668 41.9072 17.7053 41.9155C17.8764 41.9532 17.9714 42.1215 18.1441 42.2125C18.6582 42.4832 19.305 42.5095 19.8777 42.5689C20.0214 42.5837 20.0422 42.552 20.159 42.6202C20.2213 42.6567 20.193 42.7677 20.2696 42.7988C20.5583 42.9159 20.5585 42.666 20.619 42.5107C20.7145 42.6127 20.7309 42.7474 20.8615 42.8285C20.9329 42.8269 21.0043 42.8281 21.0755 42.8324C21.1156 42.8695 21.142 42.9124 21.1543 42.9609C21.3272 43.0555 21.5231 43.0226 21.7017 43.0935C21.7603 43.1168 21.864 43.2575 21.9361 43.2979C22.0653 43.3703 22.265 43.409 22.4125 43.4405C22.7219 43.5064 23.1655 43.4188 23.3496 43.6804C23.594 43.4682 23.4995 43.7215 23.6654 43.7748C23.7634 43.8061 23.9108 43.6813 24.0194 43.6937C24.2151 43.716 24.2856 43.8875 24.3483 44.0122C24.4674 43.9907 24.3856 43.7177 24.3823 43.6579C24.5304 43.6437 24.5633 43.9595 24.5888 44.0289C24.8227 43.9377 24.4389 43.654 24.6903 43.563C24.6672 43.8047 24.9051 44.0037 24.4803 44.0384C24.5389 44.1839 25.9092 44.3456 26.0044 44.2171C26.0255 44.4547 26.2226 44.2328 26.2953 44.1515C26.3035 44.2901 26.2452 44.4868 26.4373 44.5512C26.5678 44.5949 26.8622 44.4818 26.9134 44.3782C26.9719 44.5364 27.0698 44.5313 27.1916 44.6318C27.2753 44.7008 27.3304 44.8205 27.4182 44.8783C27.5797 44.9847 27.88 44.9684 28.0682 44.9446C28.4364 44.8981 28.3928 44.841 28.524 45.1508C28.5537 45.0332 28.6466 44.7873 28.8088 44.9702C28.912 45.0863 28.6923 45.3423 28.6288 45.4443C28.7707 45.3812 28.9115 45.3064 29.0729 45.2792C29.0819 45.3195 29.0902 45.4049 29.0664 45.4422C29.0712 45.4347 29.2434 45.5282 29.3073 45.5541C29.2919 45.5478 29.3577 45.3151 29.3559 45.3227C29.583 45.4362 29.4254 45.6532 29.6266 45.7651C29.6786 45.7941 29.8005 45.7603 29.8634 45.7779C29.9728 45.8086 30.0674 45.8917 30.1647 45.9402C30.0871 45.8559 30.0982 45.7144 30.1035 45.6171C30.153 45.6392 30.1883 45.722 30.2382 45.7285C30.2571 45.731 30.4528 45.752 30.4515 45.7513C30.6552 45.8667 30.6133 45.8813 30.4384 46.0201C30.5009 46.0996 30.762 45.9615 30.8327 45.9385C30.8474 45.9696 30.8512 46.0825 30.879 46.1027C30.8959 46.1361 30.9128 46.1696 30.9297 46.203C30.9819 46.1715 31.0378 46.161 31.0975 46.1714C31.1353 46.1821 31.4299 46.2791 31.4499 46.2459C31.3854 46.229 31.327 46.2031 31.2747 46.1683C31.4447 46.0445 31.5566 45.9787 31.7132 46.1574C31.7329 46.1799 31.6652 46.2608 31.6852 46.2901C31.7601 46.3994 31.9139 46.4864 32.0183 46.5754C32.0615 46.4525 31.9609 46.1447 32.2009 46.1559C32.3927 46.1648 32.5386 46.541 32.4722 46.658C32.5484 46.5905 33.0036 46.5234 33.0895 46.5445C33.3324 46.6041 33.2643 46.786 33.5632 46.5195C33.7669 46.6334 33.5873 46.6765 33.6241 46.8153C33.6779 46.8244 33.7288 46.8137 33.7771 46.783C33.741 47.3729 34.2786 46.9222 34.6277 47.0123C34.7648 47.0477 34.7998 47.1736 34.9469 47.2104C35.0247 47.2299 35.1112 47.1839 35.1869 47.1951C35.2475 47.1881 35.3078 47.1794 35.3676 47.1691C35.4435 47.1383 35.4791 47.1727 35.4745 47.2724C35.5964 47.3236 35.5503 47.3436 35.6929 47.3535C35.7848 47.36 35.8693 47.2826 35.9737 47.2958C36.1538 47.3187 36.13 47.4306 36.2451 47.4891C36.3486 47.5418 36.4654 47.54 36.5929 47.5299C36.6579 47.5247 36.8404 47.4569 36.8624 47.4566C36.9986 47.4551 36.9247 47.4317 37.0884 47.5264C37.2157 47.6003 37.2692 47.6482 37.4255 47.6822C37.6049 47.7212 37.923 47.8063 38.0437 47.7014C38.2066 47.8992 38.3343 47.754 38.5494 47.7671C38.6595 47.7738 38.677 47.8085 38.7749 47.8224C38.9337 47.8448 39.1318 47.8254 39.3008 47.8693C39.5669 47.9385 39.597 47.9733 39.869 47.9827C39.9181 47.9671 39.9672 47.9516 40.0161 47.9361C40.0308 48.0024 40.0694 48.0565 40.132 48.0984C40.2842 48.1242 40.3841 48.0621 40.5096 47.9939C40.6031 48.2298 40.9066 48.2504 41.1661 48.2814C41.5849 48.3315 41.9854 48.3588 42.3893 48.4703C42.7304 48.5644 43.0721 48.67 43.4002 48.7906C43.689 48.8966 43.9614 49.0552 44.2881 48.9808C45.0283 48.812 45.7457 48.1968 46.3649 47.8436C47.0984 47.4252 47.8895 47.0804 48.6559 46.7043C51.707 45.2068 54.9304 43.9401 57.9388 42.3869C59.5813 41.5389 61.1053 40.5314 62.8691 39.8454C62.618 40.6855 62.1906 41.5383 62.2678 42.4179C62.2989 42.7724 62.4278 43.1911 62.7673 43.4385C63.1871 43.7445 63.6546 43.5497 64.056 43.3311C64.9162 42.8628 65.4898 42.1795 66.1336 41.5379C66.8951 40.7788 67.4857 39.9633 68.0449 39.0982C68.1789 39.2505 68.077 39.5056 68.079 39.6744C68.0816 39.8899 68.1533 40.0975 68.2767 40.2898C68.5952 40.7861 69.2013 40.9065 69.749 40.5664C70.803 39.9119 71.4148 38.7463 71.9795 37.8077C72.3017 38.2929 72.7589 38.9036 73.5324 38.5571C74.1708 38.2711 74.5458 37.6321 74.741 37.0909C75.3111 35.5111 75.1304 33.9018 75.218 32.2824Z" fill="black"/>
<path fill-rule="evenodd" clip-rule="evenodd" d="M74.25 22.793C74.1772 22.6499 74.1452 22.6733 74.2791 22.5345C74.3834 22.6177 74.2999 22.6864 74.25 22.793ZM77.4759 31.4579C77.2712 30.9867 77.3977 30.475 77.2734 29.9917C77.2163 29.7699 77.1262 29.5548 77.0937 29.329C77.0793 29.2289 76.9692 28.7779 77.0442 28.7069C76.8133 28.5937 76.8125 28.5099 76.7592 28.2879C76.8414 28.2173 76.8311 28.157 76.7281 28.1069C76.6608 28.041 76.5934 27.975 76.526 27.909C76.8206 28.0256 76.6463 27.7272 76.6163 27.5552C76.5925 27.4192 76.5765 27.2774 76.5205 27.1471C76.4516 26.9869 76.2984 26.9059 76.6171 26.9059C76.5122 26.8094 76.3554 26.7097 76.3032 26.5914C76.228 26.4213 76.352 26.1963 76.1988 26.046C76.1133 25.9622 75.6729 25.9294 75.7502 25.7482C75.7895 25.656 75.968 25.7248 76.0232 25.6602C76.2403 25.4061 75.5994 25.3007 75.568 25.1927C75.5273 25.0525 75.7587 25.0212 75.773 24.8901C75.7868 24.7619 75.5406 24.5511 75.4755 24.4364C75.3868 24.4539 75.2895 24.5674 75.188 24.5132C75.1688 24.5029 75.1977 24.0589 75.1746 24C75.152 23.942 75.1056 23.7883 75.089 23.7598C75.0233 23.6469 74.8352 23.5918 74.8054 23.4584C74.7875 23.3787 75.173 23.2581 74.7309 23.2544C74.8897 23.0278 74.5988 22.8901 74.4929 22.6965C74.3568 22.4476 74.2766 22.1787 74.1368 21.9285C74.0008 21.6853 73.8488 21.4545 73.6529 21.2395C73.4755 21.0448 73.3988 20.8575 73.257 20.6518C73.2287 20.6338 73.2003 20.6157 73.172 20.5976C73.0537 20.6115 73.0158 20.5679 73.0582 20.4668C72.9677 20.3583 72.9005 20.2426 72.8207 20.1293C72.728 19.9976 72.603 19.8903 72.5073 19.7623C72.3802 19.5925 72.3426 19.4011 72.199 19.2308C72.0224 19.0213 71.8239 18.8366 71.6601 18.6193C71.4551 18.3471 71.2279 18.1778 70.9699 17.967C70.8471 17.8666 70.8323 17.6158 70.6818 17.4732C70.5179 17.3179 70.356 17.2759 70.2424 17.072C70.0946 16.8068 69.8777 16.6802 69.6666 16.451C69.4924 16.2619 69.4073 16.0446 69.2154 15.8617C69.0504 15.7046 68.8631 15.5611 68.6869 15.4121C68.4645 15.224 68.3003 14.9954 68.0689 14.8165C68.1022 14.8424 67.8674 14.6917 67.8792 14.6965C67.8272 14.675 67.6595 14.6578 67.684 14.6695C67.3346 14.5032 66.8968 13.8946 66.3711 14.2171C66.0945 14.3867 66.2272 14.6977 66.4203 14.8666C66.5032 14.9392 66.9341 15.2969 67.0272 15.146C67.1277 15.2613 67.4371 15.8188 67.6946 15.6591C67.6684 15.8496 67.8046 15.7864 67.8946 15.9151C67.9539 16.0001 67.925 16.0418 67.9682 16.1745C68.0869 16.5391 68.5398 16.8952 68.7811 17.2131C69.3815 18.0045 70.0439 18.755 70.645 19.5473C71.2177 20.3023 71.8592 21.0188 72.4087 21.784C73.0337 22.6542 73.8124 23.4755 74.2833 24.4136C74.2992 24.4451 74.43 24.495 74.4624 24.5424C74.519 24.6246 74.5069 24.7669 74.5433 24.8601C74.6696 25.1832 74.8745 25.5012 75.1078 25.7688C75.3125 26.0036 75.3274 26.3226 75.4682 26.5981C75.6669 26.9863 75.8767 27.3704 76.0697 27.7605C76.3701 28.3677 76.5736 28.9497 76.7812 29.5837C76.9157 29.9945 77.0227 30.4051 77.0656 30.8294C77.105 31.2195 77.1147 31.6259 77.293 31.9953C77.4146 31.8432 77.5578 31.6462 77.4759 31.4579Z" fill="black"/>
<path fill-rule="evenodd" clip-rule="evenodd" d="M8.76103 39.8178C8.54516 39.7825 8.34203 39.7353 8.29629 39.5347C8.26496 39.6293 8.23372 39.7239 8.20239 39.8185C8.46521 39.8667 8.72812 39.9149 8.99093 39.9631C8.92958 39.8756 8.88477 39.838 8.76103 39.8178Z" fill="black"/>
<path fill-rule="evenodd" clip-rule="evenodd" d="M9.34031 6.88287C9.35667 6.82627 9.37787 6.77079 9.40399 6.71667C9.42175 6.76944 9.50876 6.88355 9.4581 6.93331C9.39358 6.99646 9.32832 6.96071 9.34031 6.88287ZM10.3985 5.25262C10.4694 5.27791 10.6227 5.2828 10.7106 5.30418C10.4825 5.46308 10.4423 5.41634 10.1473 5.39789C10.1342 5.23711 10.2149 5.18721 10.3985 5.25262ZM8.42106 9.23289C8.45164 9.23357 8.48232 9.23417 8.51309 9.23477C8.51495 9.16477 8.51272 9.09484 8.50621 9.02499C8.81728 9.08001 8.6412 8.63989 8.54349 8.54866C8.84694 8.55686 8.99475 7.779 9.09088 7.62913C9.17622 7.49605 9.27291 7.44456 9.33529 7.28227C9.38986 7.14023 9.44889 7.01242 9.52764 6.87806C9.70855 6.56914 9.94589 6.2886 9.9021 5.92857C10.0554 6.19872 10.1902 5.92902 10.2874 5.79985C10.4441 5.59172 10.8263 5.32616 10.8669 5.07896C10.9028 4.86135 10.7031 4.84983 10.821 4.64803C10.9402 4.44374 11.0382 4.46421 11.247 4.39888C11.3858 4.35537 11.4135 4.40821 11.5114 4.26625C11.5749 4.17434 11.5525 4.10584 11.6339 4.03049C11.6674 4.05413 11.7056 4.06391 11.7484 4.05985C11.8144 3.98932 11.8577 3.91073 11.8783 3.82409C11.9321 3.70712 11.9581 3.59971 12.0392 3.4883C12.1161 3.38277 12.2526 3.10042 12.3249 3.04953C12.4017 2.99548 12.8372 3.02296 12.8354 3.02492C13.0153 2.8417 12.6851 2.65917 13.1423 2.69778C13.052 2.56169 13.3691 2.39278 13.4611 2.31705C13.691 2.12804 13.7094 2.04057 13.7579 1.80286C13.7825 1.68167 13.6217 1.69568 13.8373 1.66805C13.9264 1.65668 14.012 1.74897 14.0763 1.73542C14.3603 1.6758 14.0632 1.68717 14.1416 1.59346C14.1663 1.56372 14.2926 1.44374 14.2914 1.44502C14.2853 1.45104 14.3199 1.34061 14.3485 1.31224C14.4028 1.30847 14.4562 1.30079 14.5088 1.2892C14.5355 1.24554 14.5591 1.20083 14.5795 1.15507C14.7851 1.01626 15.0926 0.954164 15.2347 0.801662C15.3267 0.703055 15.2992 0.606479 15.418 0.508173C15.5311 0.414534 15.6808 0.482355 15.7032 0.270839C15.7317 0.00173867 15.3748 -0.11802 15.2287 0.153564C14.8327 -0.241392 13.1773 1.20768 12.9861 1.39699C12.1554 2.21882 11.339 3.06097 10.6576 3.96975C9.99377 4.85525 9.44889 5.78698 9.02301 6.76364C8.81765 7.23455 8.69261 7.70335 8.5672 8.19044C8.52509 8.35355 8.2104 9.08046 8.34139 9.24313C8.36788 9.23974 8.39447 9.23628 8.42106 9.23289Z" fill="black"/>
<path fill-rule="evenodd" clip-rule="evenodd" d="M73.8048 29.3864C73.9447 29.3108 73.9447 29.3108 73.9692 29.168C73.7816 29.1957 73.7816 29.1957 73.8048 29.3864Z" fill="black"/>
<path fill-rule="evenodd" clip-rule="evenodd" d="M4.83863 38.9931C4.84033 38.9929 4.84158 38.9933 4.84256 38.9941C4.8397 38.9911 4.82933 38.9819 4.83863 38.9931Z" fill="black"/>
<path fill-rule="evenodd" clip-rule="evenodd" d="M4.74501 39.0696C4.78824 39.1453 4.85769 39.1641 4.95345 39.1259C4.99119 39.1696 4.62602 38.8535 4.74501 39.0696Z" fill="black"/>
<path fill-rule="evenodd" clip-rule="evenodd" d="M11.0598 4.54242C10.8407 4.89025 11.1151 4.63726 11.1011 4.75025C11.1103 4.67603 11.1483 4.57027 11.0598 4.54242Z" fill="black"/>
<path fill-rule="evenodd" clip-rule="evenodd" d="M46.6836 9.92608C46.7786 10.5498 47.8324 10.2548 48.0695 9.87753C48.2421 9.60286 48.6781 8.5175 48.209 8.28822C47.8613 8.11825 47.7871 8.85081 47.7013 9.01445C47.5577 9.28852 47.4455 9.09432 47.1262 9.16462C46.7737 9.24223 46.6444 9.66744 46.6836 9.92608Z" fill="black"/>
<path fill-rule="evenodd" clip-rule="evenodd" d="M45.5322 8.78443C45.9089 8.85217 46.2781 8.81725 46.5457 8.57637C46.6939 8.44299 46.8911 8.17841 46.6242 8.04931C46.3824 7.93241 46.1083 8.20618 45.8536 8.14958C45.5073 8.07257 45.6857 7.77193 45.5668 7.57336C45.1303 7.7769 44.8867 8.66836 45.5322 8.78443Z" fill="black"/>
<path fill-rule="evenodd" clip-rule="evenodd" d="M45.9229 10.3593C45.5598 10.3587 45.5568 10.7204 45.7464 10.8753C45.9277 11.0236 46.3864 11.1737 46.6323 11.0584C47.1174 10.8308 46.2168 10.3828 45.9229 10.3593Z" fill="black"/>
<path fill-rule="evenodd" clip-rule="evenodd" d="M24.7945 24.7392C24.8721 24.7697 25.1006 24.9266 25.1969 24.8557C25.061 24.7449 24.9249 24.634 24.789 24.5231C24.7139 24.5898 24.6624 24.6873 24.7945 24.7392Z" fill="black"/>
<path fill-rule="evenodd" clip-rule="evenodd" d="M23.0785 8.87466C23.0399 8.898 23.0012 8.92126 22.9626 8.94452C23.0929 9.03236 23.0896 9.05848 23.2209 8.9753C23.182 8.93375 23.1345 8.90026 23.0785 8.87466Z" fill="black"/>
<path fill-rule="evenodd" clip-rule="evenodd" d="M47.6894 29.5683C47.6164 29.4621 47.4786 29.6578 47.3853 29.6897C47.2336 29.7414 47.1091 29.4674 47.1526 29.7958C46.8097 29.6687 46.6015 29.9604 46.3804 30.1123C46.0679 30.3269 45.6857 30.4434 45.4773 30.7482C46.4584 30.9341 47.5363 30.2493 48.2679 29.7994C48.3872 29.726 48.9839 29.3554 48.5795 29.3196C48.4141 29.305 47.8121 29.7467 47.6894 29.5683Z" fill="black"/>
<path fill-rule="evenodd" clip-rule="evenodd" d="M47.3984 28.9252C47.5907 28.8027 47.1761 28.7914 47.1106 28.7786C47.1163 28.876 47.1217 28.9734 47.1274 29.0709C47.2202 29.0254 47.3106 28.9768 47.3984 28.9252Z" fill="black"/>
<path fill-rule="evenodd" clip-rule="evenodd" d="M46.6764 29.334C46.7339 29.305 46.894 29.2143 46.7851 29.1467C46.6866 29.1974 46.6163 29.2802 46.6008 29.3747C46.626 29.3611 46.6512 29.3476 46.6764 29.334Z" fill="black"/>
<path fill-rule="evenodd" clip-rule="evenodd" d="M30.7874 21.4298C30.6646 21.4688 30.6095 21.5304 30.6224 21.6149C30.8112 21.5836 30.7752 21.4393 30.7874 21.4298Z" fill="black"/>
</svg>
